<svg width="40" height="40" viewBox="0 0 40 40" fill="none" xmlns="http://www.w3.org/2000/svg">
<path d="M17.4667 5.6C15.2 13.2 13.0667 15.3333 5.86667 17.3333C2.66667 18.2667 0 19.4667 0 20C0 20.5333 2.53333 21.6 5.73333 22.5333C13.2 24.8 15.3333 26.9333 17.3333 34.1333C18.2667 37.3333 19.4667 40 20 40C20.5333 40 21.7333 37.3333 22.6667 34.1333C24.6667 26.9333 26.8 24.8 34.4 22.5333C37.4667 21.6 40 20.5333 40 20C40 19.4667 37.3333 18.2667 34.1333 17.3333C26.9333 15.3333 24.8 13.2 22.5333 5.6C21.6 2.53333 20.5333 -3.8147e-06 20 -3.8147e-06C19.4667 -3.8147e-06 18.4 2.53333 17.4667 5.6Z" fill="black"/>
<path d="M32.2667 4.26666C31.3333 5.46667 31.4667 6.53333 32.6667 7.6C34 8.93333 34.8 8.8 35.8667 7.46667C36.9333 6.13333 36.9333 5.33333 35.4667 4.13333C34.1333 3.06666 33.3333 3.06666 32.2667 4.26666Z" fill="black"/>
<path d="M4.13333 32.5333C3.06666 33.8667 3.06666 34.6667 4.53333 35.8667C7.06666 38 9.86666 34.6667 7.33333 32.4C5.99999 31.0667 5.19999 31.2 4.13333 32.5333Z" fill="black"/>
</svg>
