<svg width="200" height="202" viewBox="0 0 200 202" fill="none" xmlns="http://www.w3.org/2000/svg">
<path d="M129.126 158.004C129.1 158.004 129.073 157.999 129.047 157.99L41.9595 127.333C41.8996 127.312 41.8503 127.268 41.8229 127.21C41.7956 127.153 41.7917 127.086 41.8126 127.026L70.6484 44.1573C70.6919 44.0322 70.8279 43.9664 70.9532 44.0098L158.041 74.6671C158.101 74.6881 158.15 74.7322 158.177 74.7898C158.205 74.8472 158.209 74.9134 158.188 74.9737L129.352 157.843C129.317 157.942 129.225 158.004 129.126 158.004ZM42.3432 126.958L128.979 157.457L157.657 75.0416L71.0209 44.5432L42.3432 126.958Z" fill="black"/>
<path d="M127.978 160.777C127.949 160.777 127.919 160.772 127.891 160.761L39.2614 126.023C39.2024 126 39.1549 125.954 39.1292 125.896C39.1037 125.837 39.1024 125.771 39.1255 125.712L71.7993 41.3756C71.8474 41.2517 71.9869 41.1908 72.1089 41.2388L160.738 75.9765C160.862 76.0247 160.922 76.1641 160.874 76.2879L128.201 160.625C128.178 160.684 128.132 160.732 128.074 160.757C128.044 160.771 128.011 160.777 127.978 160.777ZM39.658 125.662L127.842 160.226L160.342 76.3375L72.1581 41.7744L39.658 125.662Z" fill="black"/>
<path d="M126.696 163.594C126.664 163.594 126.632 163.588 126.602 163.574L36.5291 124.577C36.4709 124.551 36.4249 124.504 36.4016 124.445C36.3781 124.385 36.379 124.319 36.404 124.261L73.0843 38.5513C73.1096 38.4928 73.1567 38.4465 73.2155 38.4229C73.2746 38.3992 73.3404 38.4003 73.3985 38.4255L163.471 77.4232C163.592 77.4758 163.648 77.6171 163.596 77.7392L126.916 163.449C126.877 163.539 126.788 163.594 126.696 163.594ZM36.9376 124.23L126.571 163.037L163.062 77.7699L73.4293 38.9624L36.9376 124.23Z" fill="black"/>
<path d="M125.275 166.449C125.239 166.449 125.205 166.442 125.173 166.426L33.7658 122.987C33.6462 122.931 33.5954 122.787 33.6516 122.667L74.5093 35.6883C74.5363 35.6306 74.5851 35.5861 74.645 35.5647C74.7047 35.5432 74.7705 35.5465 74.8276 35.5736L166.234 79.0125C166.354 79.0692 166.405 79.2126 166.349 79.3327L125.491 166.312C125.464 166.369 125.415 166.414 125.355 166.435C125.329 166.445 125.302 166.449 125.275 166.449ZM34.1861 122.655L125.161 165.889L165.814 79.3447L74.8396 36.1112L34.1861 122.655Z" fill="black"/>
<path d="M123.708 169.34C123.671 169.34 123.633 169.331 123.598 169.313L30.9758 121.25C30.9194 121.221 30.8769 121.17 30.8577 121.11C30.8383 121.049 30.8438 120.983 30.873 120.926L76.0801 32.7904C76.1091 32.7336 76.1594 32.6909 76.22 32.6716C76.2806 32.6523 76.3462 32.6578 76.4022 32.6869L169.025 80.7499C169.142 80.8109 169.188 80.956 169.128 81.0739L123.92 169.21C123.878 169.292 123.794 169.34 123.708 169.34ZM31.4077 120.933L123.605 168.775L168.593 81.0671L76.3956 33.2245L31.4077 120.933Z" fill="black"/>
<path d="M121.99 172.261C121.95 172.261 121.909 172.251 121.873 172.231L28.1635 119.359C28.0484 119.294 28.0073 119.148 28.072 119.032L77.8014 29.8616C77.8325 29.8059 77.8839 29.7649 77.9452 29.7478C78.006 29.7301 78.0713 29.7384 78.1269 29.7695L171.836 82.6406C171.952 82.7055 171.993 82.8521 171.928 82.968L122.199 172.138C122.168 172.194 122.116 172.235 122.055 172.252C122.034 172.258 122.012 172.261 121.99 172.261ZM28.606 119.057L121.899 171.693L171.394 82.9424L78.1014 30.3067L28.606 119.057Z" fill="black"/>
<path d="M120.116 175.209C120.074 175.209 120.031 175.198 119.992 175.174L25.3338 117.31C25.2796 117.277 25.241 117.223 25.2258 117.161C25.2107 117.099 25.2207 117.034 25.2539 116.979L79.68 26.9067C79.7487 26.7932 79.8955 26.757 80.0086 26.826L174.666 84.6904C174.779 84.7592 174.815 84.9073 174.746 85.0209L120.32 175.093C120.275 175.168 120.197 175.209 120.116 175.209ZM25.7866 117.023L120.036 174.638L174.213 84.9766L79.9644 27.3621L25.7866 117.023Z" fill="black"/>
<path d="M118.079 178.178C118.034 178.178 117.989 178.165 117.948 178.139L22.4921 115.096C22.4392 115.061 22.4019 115.006 22.389 114.943C22.3762 114.881 22.3886 114.816 22.4235 114.762L81.7205 23.9303C81.7933 23.8194 81.9419 23.7888 82.0517 23.8613L177.508 86.9043C177.561 86.9393 177.598 86.9939 177.611 87.0564C177.624 87.1188 177.611 87.1839 177.577 87.2372L118.279 178.07C118.234 178.14 118.157 178.178 118.079 178.178ZM22.9545 114.826L118.011 177.605L177.045 87.1747L81.9892 24.3954L22.9545 114.826Z" fill="black"/>
<path d="M115.875 181.164C115.826 181.164 115.778 181.148 115.737 181.12L19.6437 112.712C19.592 112.675 19.5567 112.619 19.5463 112.556C19.5356 112.493 19.55 112.429 19.5866 112.377L83.9297 20.938C84.0062 20.8295 84.1552 20.8039 84.2631 20.8806L180.357 89.288C180.408 89.3248 180.443 89.381 180.454 89.4438C180.465 89.5067 180.45 89.5712 180.414 89.6233L116.071 181.062C116.034 181.114 115.978 181.149 115.916 181.16C115.902 181.162 115.889 181.164 115.875 181.164ZM20.1152 112.458L115.818 180.588L179.885 89.5418L84.1818 21.4122L20.1152 112.458Z" fill="black"/>
<path d="M113.498 184.16C113.445 184.16 113.394 184.143 113.353 184.111L16.7946 110.153C16.7442 110.114 16.7109 110.057 16.7024 109.994C16.6939 109.931 16.7109 109.866 16.749 109.816L86.3123 17.9351C86.3923 17.8295 86.5426 17.8087 86.6474 17.8895L183.205 91.8473C183.31 91.9278 183.331 92.0788 183.251 92.1844L113.688 184.065C113.649 184.116 113.593 184.149 113.529 184.158C113.519 184.159 113.508 184.16 113.498 184.16ZM17.2744 109.916L113.452 183.582L182.725 92.0842L86.5481 18.4177L17.2744 109.916Z" fill="black"/>
<path d="M110.94 187.161C110.885 187.161 110.832 187.141 110.789 187.106L13.9509 107.413C13.8487 107.329 13.8335 107.177 13.9174 107.075L88.8747 14.9274C88.9148 14.8781 88.9729 14.8468 89.0361 14.8404C89.0989 14.8343 89.1623 14.8531 89.2113 14.8937L186.049 94.5865C186.152 94.6707 186.167 94.8224 186.083 94.9249L111.125 187.072C111.085 187.122 111.027 187.153 110.964 187.159C110.956 187.16 110.948 187.161 110.94 187.161ZM14.4385 107.193L110.907 186.582L185.561 94.8066L89.0934 15.4183L14.4385 107.193Z" fill="black"/>
<path d="M108.198 190.16C108.14 190.16 108.084 190.139 108.04 190.1L11.119 104.488C11.0198 104.4 11.01 104.248 11.0972 104.149L91.6222 11.9219C91.664 11.8739 91.7231 11.8446 91.7863 11.8406C91.8477 11.8358 91.9118 11.8579 91.9595 11.9L188.881 97.5121C188.929 97.5542 188.958 97.6135 188.962 97.6773C188.966 97.7409 188.945 97.8038 188.903 97.8515L108.378 190.078C108.336 190.126 108.277 190.155 108.214 190.159C108.208 190.16 108.203 190.16 108.198 190.16ZM11.6142 104.285L108.176 189.58L188.386 97.7146L91.8235 12.4201L11.6142 104.285Z" fill="black"/>
<path d="M105.266 193.151C105.205 193.151 105.146 193.127 105.102 193.085L8.30622 101.372C8.21013 101.281 8.20556 101.129 8.2962 101.032L94.5599 8.92476C94.6033 8.8783 94.6634 8.85113 94.7266 8.84915C94.7935 8.84455 94.8517 8.87085 94.8979 8.91446L191.694 100.628C191.74 100.672 191.767 100.732 191.769 100.796C191.771 100.86 191.747 100.921 191.704 100.968L105.44 193.075C105.397 193.121 105.336 193.149 105.273 193.151C105.271 193.151 105.268 193.151 105.266 193.151ZM8.80802 101.187L105.256 192.57L191.192 100.813L94.744 9.4297L8.80802 101.187Z" fill="black"/>
<path d="M102.138 196.126C102.081 196.134 102.013 196.101 101.968 196.055L5.51975 98.0595C5.42671 97.965 5.4278 97.8127 5.52171 97.7194L97.6941 5.94335C97.7392 5.89842 97.7846 5.87453 97.8634 5.87366C97.927 5.8741 97.9876 5.89952 98.0323 5.94488L194.481 103.94C194.574 104.035 194.572 104.187 194.479 104.28L102.306 196.056C102.261 196.101 102.201 196.126 102.138 196.126ZM6.02787 97.8921L102.139 195.545L193.972 104.108L97.8606 6.4542L6.02787 97.8921Z" fill="black"/>
<path d="M98.8086 199.078C98.7441 199.078 98.6798 199.053 98.633 199.001L2.7678 94.5464C2.72466 94.4995 2.702 94.4375 2.7044 94.3737C2.70701 94.31 2.73446 94.2499 2.78109 94.2065L101.029 2.98497C101.076 2.94179 101.141 2.92054 101.201 2.92141C101.264 2.92382 101.324 2.95166 101.367 2.99856L197.232 107.453C197.322 107.551 197.316 107.703 197.219 107.793L98.9709 199.015C98.9249 199.057 98.8668 199.078 98.8086 199.078ZM3.28114 94.3968L98.8221 198.498L196.719 107.603L101.178 3.50174L3.28114 94.3968Z" fill="black"/>
<path d="M95.2727 202C95.2056 202 95.1387 201.972 95.0914 201.916L0.0579344 90.8274C0.0165358 90.7789 -0.00394579 90.7163 0.000629849 90.6525C0.00520549 90.5889 0.0350566 90.5298 0.0829919 90.4881L104.571 0.0583723C104.671 -0.0281942 104.822 -0.0174561 104.909 0.0837938L199.942 111.173C199.983 111.221 200.004 111.284 199.999 111.348C199.995 111.411 199.965 111.47 199.917 111.512L95.4287 201.942C95.3836 201.981 95.3281 202 95.2727 202ZM0.576508 90.6959L95.298 201.42L199.424 111.304L104.702 0.579743L0.576508 90.6959Z" fill="black"/>
</svg>
