<svg width="230" height="194" viewBox="0 0 230 194" fill="none" xmlns="http://www.w3.org/2000/svg">
<path d="M60.61 148.382C56.5486 148.382 53.1977 147.57 50.7065 145.936C46.0301 142.867 44.6065 137.112 46.589 129.292L46.6309 129.127L103.845 95.9384C107.918 93.5752 112.129 90.1788 115.398 86.6199L147.352 51.8206C153.686 44.9217 162.842 39.267 168.195 38.9467C169.58 38.8629 170.672 39.1345 171.432 39.7522C177.872 44.9849 176.605 56.3686 167.956 70.9847C151.265 99.1906 112.099 131.916 80.6494 143.936C72.9156 146.892 66.1114 148.382 60.61 148.382ZM47.5634 129.633C45.7275 137.03 47.0363 142.433 51.3527 145.265C56.8947 148.901 67.1441 148.154 80.2131 143.159C111.479 131.21 150.422 98.6643 167.024 70.6093C175.465 56.3452 176.806 45.3208 170.704 40.363C170.166 39.9259 169.349 39.7368 168.27 39.8016C163.179 40.106 154.354 45.613 148.178 52.3383L116.224 87.1376C112.894 90.7639 108.599 94.2271 104.442 96.6393L47.5634 129.633Z" fill="black"/>
<path d="M57.7925 148.896C52.9547 148.896 49.0582 147.88 46.327 145.846C41.4993 142.251 40.4918 135.769 43.4134 127.1L43.4676 126.94L103.961 95.4805C108.27 93.2393 112.824 89.89 116.455 86.2916L151.963 51.1083C158.996 44.1394 168.657 38.7186 174.091 38.7966C175.496 38.8135 176.56 39.1923 177.254 39.9226C183.098 46.0724 180.632 58.2745 170.489 73.4C150.885 102.633 108.415 135.004 75.8147 145.56C68.9494 147.783 62.8554 148.896 57.7925 148.896ZM44.36 127.488C41.6159 135.744 42.5348 141.869 47.0215 145.21C52.3047 149.144 62.3951 148.985 75.4358 144.763C107.844 134.268 150.077 102.069 169.581 72.9851C179.512 58.1754 182.012 46.3172 176.437 40.4512C175.946 39.9348 175.152 39.666 174.076 39.653C169.007 39.6091 159.615 44.8635 152.76 51.6564L117.253 86.8397C113.555 90.5045 108.911 93.918 104.513 96.2051L44.36 127.488Z" fill="black"/>
<path d="M55.1809 149.288C49.4532 149.288 44.9864 148.01 41.9672 145.464C37.0077 141.28 36.4935 134.025 40.4799 124.481L40.5442 124.327L104.124 94.9933C108.652 92.904 113.544 89.633 117.543 86.0192L156.631 50.6982C164.326 43.7448 174.558 38.6462 179.928 39.0896C181.366 39.2084 182.41 39.7027 183.032 40.5584C188.189 47.6521 184.444 60.6469 172.758 76.2108C150.144 106.33 104.417 138.059 70.8241 146.941C64.9019 148.507 59.6568 149.288 55.1809 149.288ZM41.3972 124.915C37.6167 134.054 38.0694 140.95 42.7095 144.865C47.7217 149.092 57.5927 149.54 70.5082 146.125C103.9 137.296 149.373 105.73 171.876 75.7596C183.35 60.4778 187.092 47.8079 182.142 40.9988C181.699 40.388 180.919 40.0324 179.826 39.9418C174.767 39.5222 164.896 44.4998 157.398 51.2758L118.31 86.5967C114.239 90.2756 109.253 93.6085 104.631 95.7407L41.3972 124.915Z" fill="black"/>
<path d="M52.9897 149.478C46.1294 149.478 40.9228 147.895 37.6498 144.762C32.5891 139.919 32.6525 131.847 37.8329 121.419L37.9079 121.269L104.341 94.4779C109.071 92.5699 114.289 89.4106 118.655 85.8098L161.324 50.6197C169.771 43.654 180.237 39.0251 185.662 39.8497C187.128 40.0727 188.185 40.7101 188.718 41.693C193.094 49.7549 187.993 63.5099 174.723 79.4305C149.016 110.274 100.111 141.055 65.7054 148.047C61.0019 149.003 56.7472 149.478 52.9897 149.478ZM38.7187 121.895C33.7693 131.931 33.6706 139.642 38.4356 144.203C43.2303 148.792 52.5749 149.833 65.4567 147.215C99.6514 140.266 148.285 109.64 173.868 78.945C186.928 63.2763 191.996 49.826 187.771 42.0431C187.378 41.3189 186.605 40.8644 185.473 40.6921C180.436 39.9273 170.149 44.5526 162.058 51.2256L119.389 86.4157C114.945 90.0808 109.626 93.2997 104.796 95.2477L38.7187 121.895Z" fill="black"/>
<path d="M51.2972 149.534C43.0335 149.534 36.9269 147.567 33.3964 143.714C28.2809 138.132 29.0147 129.205 35.5172 117.9L35.6023 117.752L104.61 93.9368C109.523 92.2414 115.054 89.2285 119.784 85.6708L166.007 50.9022C175.014 44.1272 185.861 39.9119 191.247 41.1016C192.778 41.4396 193.82 42.2205 194.26 43.36C197.759 52.4093 191.228 66.8826 176.342 83.069C147.476 114.456 95.5036 143.963 60.4865 148.844C57.1838 149.305 54.1147 149.534 51.2972 149.534ZM36.3702 118.415C30.2129 129.189 29.4485 137.986 34.2242 143.197C38.7099 148.093 47.7295 149.754 60.3134 148C95.1073 143.149 146.786 113.789 175.515 82.5513C190.194 66.5902 196.666 52.4005 193.271 43.6204C192.939 42.7606 192.168 42.1914 190.979 41.9289C185.999 40.8285 175.332 45.0471 166.706 51.5349L120.483 86.3038C115.669 89.9252 110.03 92.9953 105.011 94.7271L36.3702 118.415Z" fill="black"/>
<path d="M50.2255 149.486C40.2138 149.487 33.0093 147.031 29.2316 142.288C24.2012 135.971 25.7464 125.893 33.5817 113.911L33.6776 113.764L104.939 93.3712C110.01 91.9198 115.837 89.0903 120.924 85.6081L170.643 51.5742C180.14 45.0724 191.319 41.3287 196.634 42.8675C198.246 43.3335 199.273 44.2753 199.603 45.5914C202.127 55.6428 194.097 70.7847 177.572 87.1345C145.501 118.864 90.6046 146.752 55.1998 149.3C53.473 149.425 51.8133 149.486 50.2255 149.486ZM34.3991 114.464C26.8368 126.091 25.3079 135.802 30.0991 141.817C34.2525 147.033 42.903 149.325 55.1093 148.447C90.2777 145.916 144.856 118.165 176.774 86.5858C193.095 70.4379 201.046 55.5595 198.587 45.7652C198.331 44.7451 197.558 44.0421 196.291 43.6758C191.288 42.2296 180.545 45.9077 171.305 52.2334L121.586 86.2679C116.407 89.8128 110.464 92.6969 105.279 94.1805L34.3991 114.464Z" fill="black"/>
<path d="M49.8992 149.381C49.8926 149.381 49.8879 149.381 49.8816 149.381C37.7106 149.378 29.1692 146.288 25.1815 140.446C20.2533 133.225 22.7004 122.214 32.0728 109.441L32.1802 109.295L105.328 92.7838C110.531 91.6092 116.632 89.0019 122.065 85.63L175.189 52.6645C185.262 46.4137 196.441 43.2612 201.775 45.1697C203.482 45.7805 204.49 46.9039 204.688 48.418C206.138 59.4793 196.545 75.23 178.368 91.6315C143.074 123.478 85.4481 149.381 49.8992 149.381ZM32.8539 110.031C23.7722 122.465 21.3679 133.113 26.0863 140.025C29.8788 145.583 38.1072 148.521 49.8816 148.524C49.8863 148.524 49.8945 148.524 49.8992 148.524C85.1953 148.524 142.476 122.748 177.602 91.0537C195.578 74.8335 205.075 59.3271 203.656 48.5103C203.498 47.303 202.726 46.4437 201.362 45.9556C196.429 44.1904 185.447 47.3703 175.813 53.349L122.689 86.3147C117.155 89.7493 110.926 92.4084 105.602 93.61L32.8539 110.031Z" fill="black"/>
<path d="M50.5133 149.276C48.4634 149.276 46.485 149.203 44.5712 149.052C32.8927 148.133 24.8373 144.361 21.2771 138.144C16.5705 129.926 20.0374 117.972 31.0401 104.485L31.1595 104.339L105.779 92.1781C111.083 91.3136 117.432 88.9683 123.199 85.7429L179.603 54.2007C190.011 48.381 201.37 45.7855 206.615 48.0285C208.433 48.8059 209.414 50.1342 209.454 51.87C209.731 63.9434 198.517 80.2333 178.686 96.5636C142.235 126.581 86.4203 149.273 50.5133 149.276ZM31.7815 105.11C21.0861 118.275 17.6883 129.873 22.2159 137.778C25.6112 143.706 33.3753 147.31 44.6699 148.199C79.81 150.968 139.611 127.532 177.953 95.9572C197.585 79.7908 208.688 63.7277 208.416 51.8861C208.384 50.4639 207.617 49.4217 206.137 48.789C201.291 46.7158 190.133 49.3465 180.185 54.9097L123.782 86.4521C117.904 89.7392 111.416 92.1326 105.98 93.0184L31.7815 105.11Z" fill="black"/>
<path d="M52.1269 149.248C47.5504 149.248 43.2602 148.934 39.312 148.28C28.1633 146.436 20.6397 141.957 17.5546 135.328C13.2227 126.022 17.8329 113.134 30.5344 99.0397L30.6675 98.8914L106.296 91.5571C111.667 91.0363 118.236 88.994 124.318 85.9539L183.838 56.2091C194.662 50.8 205.871 48.8475 211.102 51.4615C213.044 52.4322 213.99 53.9926 213.838 55.974C212.84 69.0531 199.954 85.8027 178.484 101.928C141.452 129.742 88.1256 149.248 52.1269 149.248ZM31.2336 99.6987C18.8518 113.492 14.339 126.03 18.5233 135.021C21.4741 141.362 28.7335 145.656 39.5159 147.441C74.2329 153.185 136.259 132.483 177.785 101.295C199.059 85.3175 211.821 68.7791 212.803 55.9198C212.93 54.2535 212.177 52.9998 210.565 52.1936C205.731 49.7775 194.717 51.7732 184.376 56.9412L124.856 86.6865C118.651 89.7878 111.93 91.8729 106.417 92.4076L31.2336 99.6987Z" fill="black"/>
<path d="M54.9107 149.388C47.2261 149.388 40.2195 148.628 34.1504 147.033C23.555 144.247 16.607 139.025 14.0578 131.933C10.2924 121.459 16.1685 107.669 30.6038 93.1043L30.7523 92.9536L106.88 90.9244C112.279 90.7803 119.033 89.0836 125.411 86.2689L187.846 58.7142C198.825 53.8683 210.064 52.5396 215.178 55.483C217.256 56.6792 218.154 58.5022 217.774 60.7549C215.4 74.8249 200.8 91.9435 177.716 107.721C140.77 132.972 90.6103 149.388 54.9107 149.388ZM31.2579 93.7973C17.1552 108.08 11.401 121.531 15.0523 131.689C17.4998 138.497 24.2125 143.521 34.4653 146.217C68.4349 155.148 132.398 137.583 177.054 107.061C199.941 91.4185 214.408 74.4976 216.746 60.6367C217.074 58.6973 216.346 57.1998 214.584 56.1857C209.855 53.4635 198.816 54.8441 188.335 59.4697L125.901 87.0244C119.388 89.8989 112.468 91.6326 106.914 91.7806L31.2579 93.7973Z" fill="black"/>
<path d="M59.0033 149.808C47.5533 149.808 37.3424 148.352 29.137 145.277C19.1093 141.52 12.7855 135.504 10.8484 127.88C7.87613 116.179 15.139 101.549 31.2985 86.6839L31.4659 86.5299L107.533 90.2853C112.92 90.5527 119.822 89.2428 126.468 86.6956L191.574 61.7398C202.616 57.5074 213.805 56.8356 218.785 60.1053C221.01 61.5661 221.841 63.6853 221.189 66.234C217.342 81.2721 200.994 98.6579 176.339 113.933C140.224 136.308 93.8722 149.807 59.0033 149.808ZM31.9044 87.4097C16.0869 102.013 8.97187 116.317 11.8644 127.705C13.7299 135.05 19.8516 140.857 29.5663 144.498C62.4468 156.819 128.013 142.802 175.716 113.248C200.174 98.0959 216.378 80.8954 220.174 66.0574C220.747 63.8162 220.063 62.0393 218.139 60.776C213.454 57.6999 202.71 58.4163 192.012 62.5169L126.905 87.4727C120.108 90.0779 113.022 91.4146 107.471 91.1406L31.9044 87.4097Z" fill="black"/>
<path d="M64.4656 150.637C48.5425 150.638 34.5864 148.174 24.3276 142.984C14.8755 138.202 9.23226 131.32 8.00791 123.082C6.08344 110.129 14.8417 94.7529 32.6688 79.7866L32.8567 79.629L108.255 89.645C113.587 90.3534 120.593 89.4767 127.477 87.2399L194.971 65.3076C206.156 61.673 216.965 61.6847 221.866 65.3368C224.245 67.109 224.988 69.5617 224.016 72.4299C218.598 88.4028 200.482 105.943 174.311 120.552C139.826 139.804 97.84 150.635 64.4656 150.637ZM33.2214 80.5447C15.7458 95.2709 7.15995 110.334 9.03839 122.978C10.223 130.947 15.6973 137.613 24.8695 142.254C56.3194 158.163 123.096 148.11 173.731 119.843C199.7 105.345 217.664 87.9798 223.016 72.1992C223.875 69.6653 223.237 67.5122 221.171 65.9726C216.555 62.5333 206.179 62.5861 195.351 66.1042L127.857 88.0365C120.805 90.3282 113.599 91.2221 108.09 90.4903L33.2214 80.5447Z" fill="black"/>
<path d="M71.2127 152.017C50.1527 152.018 31.8634 148.149 19.7776 140.124C10.9134 134.239 6.02547 126.396 5.64309 117.444C5.03628 103.26 15.3777 87.2716 34.762 72.426L34.9735 72.2639L109.045 89.0084C114.276 90.1911 121.339 89.7891 128.426 87.9071L197.979 69.4355C209.214 66.4515 219.571 67.1375 224.366 71.1825C226.898 73.3196 227.525 76.1462 226.178 79.3561C219.098 96.2199 199.202 113.79 171.592 127.562C139.525 143.556 102.346 152.016 71.2127 152.017ZM35.2566 73.2158C16.2322 87.8439 6.08631 103.533 6.6802 117.414C7.05185 126.11 11.8058 133.732 20.4276 139.457C50.0682 159.137 117.639 153.473 171.056 126.829C198.461 113.159 218.195 95.754 225.197 79.0759C226.407 76.1936 225.863 73.6711 223.624 71.7816C219.172 68.0252 208.995 67.4102 198.297 70.2508L128.744 88.7225C121.47 90.6547 114.19 91.0597 108.771 89.8346L35.2566 73.2158Z" fill="black"/>
<path d="M78.9702 154.088C52.2351 154.088 29.062 148.306 15.5476 136.673C7.29835 129.572 3.26659 120.652 3.88822 110.876C4.86322 95.5376 16.8438 79.1097 37.6227 64.619L37.8619 64.4525L109.903 88.3814C114.981 90.0683 122.053 90.1859 129.303 88.7033L200.542 74.14C211.568 71.8867 221.648 73.2619 226.227 77.6448C228.868 80.1732 229.357 83.5035 227.601 87.0216C218.771 104.721 197.099 122.186 168.143 134.939C139.218 147.678 107.12 154.087 78.9702 154.088ZM38.0545 65.4398C17.6422 79.7357 5.88077 95.8792 4.92405 110.921C4.31787 120.455 8.25034 129.154 16.2965 136.08C43.7412 159.703 111.639 158.852 167.654 134.183C196.402 121.523 217.902 104.214 226.642 86.6954C228.264 83.4447 227.848 80.5083 225.441 78.2039C221.116 74.0637 211.442 72.7942 200.792 74.9712L129.553 89.5347C122.093 91.0595 114.79 90.9286 109.515 89.1762L38.0545 65.4398Z" fill="black"/>
<path d="M87.2729 156.97C54.5283 156.971 26.062 148.634 11.7011 132.608C-7.96311 110.664 3.93077 80.034 41.2985 56.3899L41.5674 56.2195L110.825 87.7708C115.701 89.992 122.723 90.6708 130.095 89.6338L202.602 79.4341C213.5 77.9002 223.003 79.9276 227.398 84.7244C230.166 87.744 230.454 91.5462 228.212 95.4306C217.55 113.9 194.119 131.113 163.927 142.658C138.735 152.29 111.803 156.97 87.2729 156.97ZM41.6607 57.2404C4.98961 80.5543 -6.71922 110.612 12.5355 132.098C24.4647 145.411 46.7929 153.773 75.4087 155.645C104.091 157.522 135.37 152.633 163.49 141.881C193.467 130.419 216.716 113.354 227.275 95.0625C229.372 91.4291 229.129 88.033 226.57 85.2413C222.473 80.7695 213.131 78.8217 202.776 80.2786L130.27 90.4782C122.67 91.5475 115.4 90.8339 110.324 88.5208L41.6607 57.2404Z" fill="black"/>
<path d="M95.5433 160.756C56.7018 160.756 22.7486 149.07 8.30169 127.909C-8.94979 102.64 6.13072 70.433 45.828 47.7663L46.1313 47.593L111.81 87.1824C116.427 89.9658 123.344 91.2494 130.79 90.703L204.097 85.3272C214.632 84.555 223.729 87.2731 227.83 92.4227C230.688 96.0092 230.724 100.328 227.933 104.582C215.364 123.742 190.206 140.547 158.909 150.687C137.858 157.508 116.021 160.756 95.5433 160.756ZM46.1161 48.6443C7.10856 71.0355 -7.7245 102.69 9.20608 127.489C19.6865 142.84 41.0466 153.642 69.351 157.906C97.7199 162.179 129.388 159.332 158.53 149.89C189.603 139.822 214.567 123.159 227.022 104.174C229.622 100.21 229.601 96.2041 226.964 92.8933C223.072 88.0081 214.345 85.4359 204.19 86.1805L130.883 91.5561C123.191 92.1206 116.016 90.778 111.199 87.8741L46.1161 48.6443Z" fill="black"/>
<path d="M103.52 165.462C89.4632 165.462 75.6934 163.88 62.7845 160.702C34.7345 153.798 14.3607 140.252 5.41487 122.561C-9.0872 93.88 9.33315 60.2122 51.2522 38.7823L51.592 38.6082L112.853 86.6212C117.156 89.9941 123.895 91.8839 131.373 91.9146L204.969 91.8251C204.987 91.8251 205.006 91.8251 205.023 91.8251C215.118 91.8251 223.718 95.2394 227.476 100.742C230.367 104.976 230.089 109.85 226.692 114.466C212.149 134.228 185.312 150.456 153.062 158.989C136.775 163.299 119.951 165.462 103.52 165.462ZM51.458 39.685C10.2303 60.8925 -7.88681 94.0309 6.37285 122.231C15.1958 139.681 35.3357 153.052 63.0811 159.881C90.8804 166.724 122.723 166.117 152.745 158.174C184.76 149.703 211.39 133.61 225.805 114.022C228.998 109.682 229.27 105.115 226.572 101.163C222.997 95.9298 214.743 92.682 205.024 92.682C205.005 92.682 204.989 92.682 204.97 92.682L131.374 92.7715C131.356 92.7715 131.338 92.7715 131.321 92.7715C123.612 92.7715 116.623 90.7577 112.138 87.2427L51.458 39.685Z" fill="black"/>
<path d="M110.033 171.193C91.1856 171.194 72.8005 168.209 56.2195 162.318C29.0081 152.649 10.1458 136.396 3.10644 116.551C-8.30166 84.3893 13.5991 49.3975 57.6046 29.4783L57.9835 29.3066L113.948 86.0936C117.879 90.0826 124.396 92.6992 131.828 93.2726L205.153 98.9297C214.959 99.6862 222.86 103.71 226.29 109.693C229.092 114.581 228.407 120.186 224.411 125.071C207.839 145.33 179.389 160.803 146.357 167.522C134.293 169.977 122.069 171.193 110.033 171.193ZM57.7251 30.4016C14.4127 50.1517 -7.13248 84.6367 4.10256 116.31C11.0533 135.906 29.7082 151.965 56.6296 161.531C83.5939 171.111 115.373 172.943 146.109 166.691C178.894 160.021 207.121 144.677 223.55 124.592C227.392 119.896 228.032 114.735 225.352 110.059C222.081 104.352 214.494 100.511 205.058 99.7825L131.731 94.1254C124.024 93.5304 117.248 90.8001 113.142 86.6339L57.7251 30.4016Z" fill="black"/>
<path d="M115.201 177.882C91.7672 177.882 69.0481 172.989 49.5068 163.553C23.4264 150.96 6.3574 131.895 1.44362 109.87C-6.51936 74.1789 18.9883 38.0232 64.9161 19.9002L65.3344 19.735L115.092 85.6045C118.589 90.234 124.804 93.578 132.143 94.7794L204.592 106.638C213.905 108.162 221.245 112.892 224.227 119.29C226.871 124.965 225.702 131.192 221.02 136.375C202.373 157.015 172.395 171.545 138.774 176.239C130.898 177.338 123.01 177.881 115.201 177.882ZM64.9451 20.8388C19.7086 38.8461 -5.38832 74.5174 2.4637 109.715C7.32168 131.491 24.2144 150.348 50.03 162.814C75.8734 175.292 107.327 179.76 138.601 175.394C171.961 170.737 201.698 156.328 220.188 135.863C224.653 130.921 225.772 124.992 223.258 119.597C220.405 113.476 213.352 108.945 204.391 107.478L131.941 95.6195C124.322 94.3725 117.86 90.8872 114.211 86.0577L64.9451 20.8388Z" fill="black"/>
<path d="M118.857 185.498C91.0507 185.498 64.3594 178.146 42.6884 164.366C18.0457 148.696 3.06136 126.729 0.493517 102.512C-3.66655 63.2672 25.5564 26.1296 73.2119 10.1001L73.6687 9.94656L73.878 10.3155L116.28 85.1594C119.278 90.4515 125.117 94.5617 132.301 96.4364H132.301L203.223 114.942C212.033 117.24 218.766 122.705 221.234 129.56C223.581 136.078 221.838 142.926 216.45 148.349C195.694 169.241 164.293 182.63 130.297 185.085C126.47 185.361 122.653 185.498 118.857 185.498ZM73.1473 11.0475C26.1871 27.0175 -2.57933 63.6944 1.52746 102.437C4.06946 126.413 18.912 148.165 43.3223 163.687C67.7446 179.217 98.6064 186.513 130.207 184.231C163.925 181.796 195.067 168.52 215.648 147.805C220.813 142.606 222.487 136.044 220.24 129.803C217.869 123.221 211.391 117.97 202.91 115.757L131.988 97.2522C124.529 95.3057 118.461 91.0301 115.34 85.5215L73.1473 11.0475Z" fill="black"/>
<path d="M120.914 194C88.9185 194 58.6953 183.599 35.8113 164.713C12.9274 145.827 0.32486 120.884 0.32486 94.4779C0.32486 51.6785 33.3541 13.7657 82.5136 0.136321L83.0054 0L117.507 84.7634C119.939 90.7376 125.326 95.6509 132.287 98.2431L200.985 123.826C209.416 126.966 215.344 133.057 217.25 140.537C219.133 147.927 216.721 155.37 210.633 160.956C187.749 181.956 155.048 194 120.914 194ZM82.3526 1.08537C33.8869 14.7126 1.36259 52.1889 1.36259 94.4776C1.36259 120.655 13.8573 145.383 36.5452 164.107C59.2331 182.831 89.1962 193.143 120.914 193.143C154.754 193.143 187.174 181.203 209.862 160.383C215.726 155.002 218.048 147.833 216.234 140.713C214.398 133.503 208.684 127.633 200.558 124.606L131.86 99.0236C124.637 96.3336 119.047 91.2353 116.524 85.0358L82.3526 1.08537Z" fill="black"/>
</svg>
