<svg width="143" height="134" viewBox="0 0 143 134" fill="none" xmlns="http://www.w3.org/2000/svg">
<path d="M77.7211 93.9108C69.8698 93.9108 61.481 91.7226 54.0885 87.262C45.0717 81.821 39.0837 73.9619 37.6595 65.6998C36.6031 59.5715 38.1482 53.8871 42.1276 49.261C51.7296 38.0977 72.7169 36.9661 88.9113 46.7382C97.9281 52.1791 103.916 60.0381 105.341 68.3002C106.397 74.4285 104.852 80.113 100.872 84.7392C95.6533 90.8065 87.069 93.9108 77.7211 93.9108ZM65.275 40.3291C56.0045 40.3291 47.5001 43.4024 42.3295 49.4134C38.3977 53.9843 36.8714 59.6026 37.9155 65.661C39.3279 73.8553 45.2739 81.654 54.2289 87.0577C70.3152 96.7646 91.1487 95.6557 100.671 84.5868C104.602 80.0157 106.129 74.3974 105.084 68.339C103.672 60.1448 97.7261 52.3461 88.7711 46.9426C81.4202 42.5067 73.0761 40.3291 65.275 40.3291Z" fill="black"/>
<path d="M75.1342 95.2675C69.6646 95.2675 63.9813 94.2157 58.5286 91.9966C48.903 88.0794 41.5258 81.1264 38.2882 72.9208C35.7336 66.4466 36.0036 59.6516 39.0479 53.7872C46.2023 40.0081 66.5794 34.7218 84.4714 42.0033C94.097 45.9204 101.474 52.8734 104.712 61.0789C107.267 67.5533 106.996 74.3482 103.952 80.2126C98.9778 89.7927 87.6124 95.2675 75.1342 95.2675ZM39.2915 53.8982C36.2794 59.6997 36.0132 66.4241 38.5418 72.8331C41.7541 80.9742 49.0782 87.8744 58.6363 91.7643C76.3977 98.9926 96.6171 93.7608 103.709 80.1018C106.721 74.3003 106.987 67.5758 104.459 61.1669C101.246 53.0256 93.9222 46.1255 84.3639 42.2357C66.6028 35.0078 46.3829 40.2392 39.2915 53.8982Z" fill="black"/>
<path d="M73.0101 97.2101C70.0011 97.2103 66.93 96.8793 63.853 96.186C54.0909 93.9861 45.6592 88.3656 40.7196 80.7652C36.3909 74.1047 35.0514 66.4508 36.948 59.2133C41.1646 43.1205 60.0958 33.5206 79.1472 37.8141C88.9093 40.014 97.341 45.6346 102.281 53.2351C106.609 59.8956 107.949 67.5495 106.052 74.787C102.516 88.2806 88.6331 97.2091 73.0101 97.2101ZM69.9892 37.0539C54.4916 37.0539 40.7262 45.9013 37.2216 59.2762C35.3434 66.4449 36.6711 74.0276 40.9604 80.6277C45.8612 88.1685 54.2294 93.7457 63.9191 95.9291C82.819 100.188 101.599 90.6759 105.779 74.7237C107.657 67.5551 106.329 59.9724 102.04 53.3723C97.1391 45.8315 88.7711 40.2543 79.0812 38.0707C76.0276 37.3827 72.9755 37.0539 69.9892 37.0539Z" fill="black"/>
<path d="M71.7161 99.6614C71.1239 99.6614 70.5315 99.6481 69.9356 99.6214C50.356 98.7431 35.1287 83.395 35.9911 65.4077C36.4029 56.8168 40.3963 48.8691 47.2353 43.0285C54.2724 37.0192 63.4466 33.948 73.0641 34.3787C92.6438 35.257 107.871 50.6052 107.009 68.5925C106.597 77.1833 102.604 85.131 95.7645 90.9716C89.1635 96.6086 80.6813 99.6614 71.7161 99.6614ZM71.2844 34.6141C62.392 34.6141 53.9804 37.6411 47.4335 43.2321C40.6525 49.0229 36.6932 56.9026 36.2846 65.4199C35.4295 83.256 50.5315 98.4752 69.9498 99.3463C79.4885 99.7726 88.5876 96.7279 95.5666 90.768C102.348 84.9773 106.307 77.0973 106.716 68.5801C107.571 50.744 92.4686 35.5248 73.0504 34.6538C72.4599 34.6273 71.8712 34.6141 71.2844 34.6141Z" fill="black"/>
<path d="M71.3533 102.492C64.1347 102.492 57.091 100.3 51.0935 96.121C42.9839 90.4699 37.7344 81.9743 36.3127 72.1997C33.4972 52.8445 46.9902 34.7643 66.3903 31.8961C75.3957 30.5644 84.458 32.6893 91.9061 37.8794C100.016 43.5305 105.265 52.026 106.687 61.8009C109.503 81.156 96.01 99.2363 76.6099 102.104C74.8557 102.364 73.0993 102.492 71.3533 102.492ZM71.646 31.7955C69.9157 31.7955 68.1762 31.9224 66.4382 32.1795C47.2012 35.0236 33.8233 52.9591 36.6163 72.1608C38.027 81.8585 43.2332 90.2859 51.2765 95.8906C58.6577 101.034 67.6373 103.14 76.562 101.821C95.7989 98.9765 109.177 81.041 106.384 61.8395C104.973 52.1418 99.7666 43.7144 91.7233 38.1096C85.7795 33.9677 78.7991 31.7955 71.646 31.7955Z" fill="black"/>
<path d="M72.2389 105.507C67.5661 105.507 62.8839 104.512 58.4617 102.531C48.9504 98.2706 41.4963 89.8328 38.0107 79.3809C31.3079 59.283 40.8716 37.3752 59.3299 30.5449C67.5029 27.5203 76.4554 27.8486 84.5385 31.4692C94.0498 35.7296 101.504 44.1675 104.989 54.6193C111.692 74.7173 102.128 96.6249 83.6701 103.455C79.9687 104.825 76.1071 105.507 72.2389 105.507ZM70.7607 28.7927C66.9319 28.7927 63.1108 29.4676 59.4472 30.8232C41.1412 37.5973 31.6615 59.3401 38.3154 79.2915C41.775 89.6643 49.1681 98.0363 58.5995 102.261C66.6016 105.845 75.4632 106.17 83.5528 103.177C101.859 96.4027 111.338 74.6599 104.685 54.7083C101.225 44.3356 93.8321 35.9635 84.4007 31.7391C80.0227 29.7782 75.3863 28.7927 70.7607 28.7927Z" fill="black"/>
<path d="M74.1119 108.514C71.6345 108.514 69.1322 108.217 66.6436 107.618C56.1325 105.085 46.8362 97.4647 41.1385 86.7111C30.47 66.5762 35.397 41.3498 52.1216 30.4772C59.3112 25.8033 67.918 24.349 76.3569 26.3826C86.8677 28.9155 96.1641 36.5356 101.862 47.2894C112.53 67.4241 107.604 92.6506 90.8789 103.523C85.8096 106.819 80.0347 108.514 74.1119 108.514ZM41.4364 86.5721C47.0912 97.2444 56.3089 104.805 66.7261 107.315C75.0708 109.326 83.5804 107.888 90.6889 103.266C107.283 92.4784 112.161 67.4294 101.563 47.4279C95.9086 36.7555 86.6909 29.1949 76.2737 26.6847C67.93 24.6737 59.4196 26.1119 52.3111 30.7335C35.7171 41.5212 30.8388 66.5704 41.4364 86.5721Z" fill="black"/>
<path d="M76.8452 111.332C76.2922 111.332 75.737 111.316 75.1788 111.286C64.2773 110.684 53.5327 104.356 45.7 93.9226C31.1322 74.5183 30.8317 46.6531 45.0304 31.8065C51.0931 25.4671 59.1859 22.2378 67.8215 22.7144C78.7229 23.3159 89.4674 29.6445 97.3002 40.0774C111.868 59.4818 112.168 87.3471 97.9696 102.193C92.2989 108.123 84.8504 111.332 76.8452 111.332ZM66.1562 22.9938C58.2502 22.9938 50.8926 26.1641 45.2888 32.0235C31.1918 46.7638 31.5037 74.4477 45.9842 93.7353C53.7556 104.087 64.4042 110.365 75.1993 110.961C83.7243 111.431 91.7204 108.241 97.7112 101.976C111.808 87.2362 111.496 59.5523 97.016 40.2647C89.2448 29.9133 78.5962 23.6349 67.801 23.0393C67.2504 23.0089 66.702 22.9938 66.1562 22.9938Z" fill="black"/>
<path d="M80.1505 113.797C70.4586 113.798 60.255 109.161 51.6456 100.73C33.3982 82.8613 27.4298 53.1964 38.3408 34.6022C43.0765 26.5316 50.5016 21.4951 59.249 20.4209C69.9694 19.1038 81.6712 23.7878 91.3543 33.27C109.602 51.1387 115.57 80.8034 104.659 99.3978C99.9235 107.468 92.4978 112.505 83.7508 113.579C82.5618 113.725 81.3596 113.797 80.1505 113.797ZM62.85 20.5417C61.6558 20.5417 60.4702 20.613 59.2961 20.7571C50.6663 21.8171 43.3369 26.7919 38.6581 34.7656C27.8176 53.2396 33.7611 82.7259 51.9073 100.495C61.5098 109.899 73.0995 114.545 83.7039 113.243C92.3337 112.183 99.6634 107.208 104.342 99.2344C115.182 80.7604 109.239 51.2741 91.0929 33.5047C82.5533 25.1422 72.442 20.5417 62.85 20.5417Z" fill="black"/>
<path d="M83.8007 115.789C75.7449 115.789 67.0224 112.71 58.8684 106.838C37.3211 91.3208 25.4226 60.8362 32.3445 38.8829C35.4569 29.0122 42.0139 22.1018 50.8081 19.4245C60.894 16.3542 73.0398 19.1745 84.1322 27.1623C105.679 42.6794 117.578 73.1639 110.656 95.1173C107.544 104.988 100.987 111.898 92.1924 114.576C89.5207 115.389 86.7034 115.789 83.8007 115.789ZM59.2006 18.5645C56.3361 18.5645 53.5589 18.9587 50.9245 19.7607C42.2522 22.4009 35.7822 29.2275 32.7063 38.983C25.8248 60.808 37.6642 91.1218 59.0983 106.557C70.0903 114.473 82.11 117.273 92.0757 114.239C100.748 111.599 107.218 104.772 110.294 95.0172C117.175 73.1921 105.336 42.8783 83.9019 27.4429C75.8155 21.6193 67.1722 18.5645 59.2006 18.5645Z" fill="black"/>
<path d="M87.3558 117.286C81.0287 117.286 74.1746 115.498 67.2028 111.951C42.8932 99.583 25.0065 69.3744 27.3304 44.6113C28.4258 32.9368 33.839 24.0868 42.5728 19.6919C51.8424 15.0273 63.6415 15.8643 75.7975 22.0488C100.107 34.4168 117.994 64.6255 115.67 89.3888C114.574 101.063 109.161 109.913 100.427 114.308C96.4742 116.297 92.0604 117.286 87.3558 117.286ZM55.6451 17.083C51.0034 17.083 46.6538 18.0568 42.759 20.0168C34.1462 24.351 28.8061 33.097 27.7223 44.6436C25.4108 69.274 43.2058 99.3229 67.3905 111.627C79.4263 117.751 91.0929 118.587 100.241 113.983C108.854 109.649 114.194 100.903 115.278 89.3565C117.589 64.726 99.7943 34.6772 75.6098 22.3727C68.6979 18.8562 61.9062 17.083 55.6451 17.083Z" fill="black"/>
<path d="M90.6573 118.177C86.1844 118.177 81.399 117.385 76.4274 115.788C50.0447 107.316 26.3351 78.5632 23.5743 51.6935C22.2028 38.3439 26.1171 27.5374 34.5959 21.2643C42.6927 15.2741 54.0486 14.1898 66.5724 18.2118C92.9549 26.6842 116.665 55.437 119.426 82.3067C120.797 95.6563 116.883 106.463 108.404 112.736C103.521 116.348 97.4517 118.176 90.6573 118.177ZM52.3449 16.2084C45.64 16.2084 39.6592 18.0082 34.8501 21.5661C26.4843 27.7552 22.6251 38.4416 23.9829 51.6566C26.7295 78.3903 50.3156 106.997 76.5604 115.425C88.9475 119.403 100.166 118.34 108.15 112.434C116.515 106.245 120.375 95.5587 119.017 82.3436C116.27 55.6098 92.6842 27.0035 66.4394 18.5754C61.514 16.9935 56.7711 16.2084 52.3449 16.2084Z" fill="black"/>
<path d="M93.0685 118.585C90.8749 118.585 88.6047 118.421 86.2679 118.09C58.6408 114.177 29.5093 88.107 21.3286 59.9756C17.1132 45.4799 19.1649 32.4615 26.9581 24.2586C33.7433 17.1165 44.3179 14.1516 56.7323 15.91C84.3592 19.8232 113.491 45.8932 121.672 74.0244C125.887 88.5201 123.835 101.538 116.042 109.741C110.534 115.539 102.528 118.585 93.0685 118.585ZM49.9346 15.8164C40.5963 15.8164 32.7023 18.8148 27.2775 24.525C19.5824 32.625 17.5645 45.5078 21.7413 59.8701C29.8815 87.8626 58.8568 113.802 86.3317 117.694C98.5994 119.431 109.037 116.512 115.723 109.475C123.418 101.375 125.436 88.492 121.259 74.1297C113.118 46.1374 84.1434 20.1977 56.6685 16.3061C54.3547 15.9785 52.1051 15.8164 49.9346 15.8164Z" fill="black"/>
<path d="M94.2266 118.679C66.7406 118.679 34.2126 96.9386 20.8087 69.2458C13.3988 53.9367 13.0331 39.2163 19.8052 28.8588C25.1604 20.6682 34.6761 15.8767 46.5996 15.3666C74.5164 14.1721 108.432 36.3277 122.191 64.7542C129.601 80.0631 129.967 94.7837 123.195 105.141C117.84 113.332 108.324 118.123 96.4009 118.633C95.68 118.664 94.9548 118.679 94.2266 118.679ZM96.3806 118.216C108.152 117.713 117.539 112.992 122.815 104.923C129.509 94.6857 129.133 80.1076 121.785 64.927C108.095 36.6424 74.3826 14.5971 46.6197 15.7843C34.8487 16.2878 25.4609 21.0086 20.1853 29.0773C13.4919 39.3146 13.867 53.8927 21.2149 69.0735C34.9053 97.3581 68.6247 119.405 96.3806 118.216Z" fill="black"/>
<path d="M93.8755 118.701C68.5668 118.701 38.6441 102.829 22.1844 79.2356C11.4495 63.8484 8.24324 47.8353 13.3878 35.3026C17.2227 25.9597 25.2275 19.5468 36.5361 16.7574C63.7106 10.0535 101.518 27.104 120.815 54.7642C131.55 70.1515 134.757 86.1645 129.612 98.6973C125.777 108.04 117.772 114.453 106.464 117.242C102.468 118.228 98.2382 118.701 93.8755 118.701ZM49.1444 15.7323C44.8135 15.7323 40.6206 16.2004 36.6544 17.1788C25.4964 19.9312 17.601 26.2524 13.8219 35.4591C8.73156 47.8596 11.9217 63.7287 22.5736 78.9974C41.7695 106.512 79.3487 123.48 106.346 116.822C117.504 114.069 125.399 107.748 129.178 98.5411C134.269 86.1405 131.079 70.2716 120.427 55.0028C104.051 31.5297 74.2941 15.7323 49.1444 15.7323Z" fill="black"/>
<path d="M91.7652 118.956C69.1712 118.956 43.2332 108.145 25.568 89.6259C11.6639 75.0495 5.29954 58.3627 8.10707 43.8443C10.1196 33.4381 16.6307 25.2616 26.9364 20.1989C52.2553 7.76114 92.8519 18.606 117.432 44.3739C131.336 58.9503 137.7 75.6372 134.893 90.1557C132.88 100.562 126.369 108.738 116.063 113.801C108.941 117.3 100.609 118.956 91.7652 118.956ZM51.2511 15.491C42.4798 15.491 34.2231 17.1324 27.1616 20.6013C16.993 25.5965 10.5692 33.6618 8.58415 43.9252C5.80345 58.305 12.1255 74.8519 25.9296 89.3231C43.5041 107.747 69.2994 118.507 91.7489 118.509C100.52 118.509 108.777 116.867 115.838 113.398C126.007 108.403 132.431 100.338 134.416 90.0746C137.197 75.6948 130.875 59.1478 117.071 44.6764C99.4962 26.2528 73.7006 15.491 51.2511 15.491Z" fill="black"/>
<path d="M87.838 119.826C68.7904 119.826 47.8201 113.058 31.0051 100.054C14.4119 87.2222 4.76825 70.6785 4.54739 54.6653C4.38837 43.1561 9.11328 33.1535 18.2111 25.7389C40.5406 7.54077 82.6117 11.2222 111.995 33.9456C128.588 46.7778 138.232 63.3214 138.453 79.3346C138.612 90.8438 133.887 100.846 124.789 108.261C115.238 116.045 102.075 119.826 87.838 119.826ZM55.1631 14.6397C41.0475 14.6397 28.0053 18.3844 18.5428 26.0964C9.56062 33.4168 4.89573 43.2936 5.05276 54.6594C5.27181 70.5331 14.8482 86.9458 31.3267 99.6892C60.5277 122.272 102.306 125.957 124.458 107.904C133.44 100.583 138.105 90.7065 137.948 79.3409C137.729 63.4672 128.152 47.0544 111.674 34.3109C94.9467 21.3753 74.0907 14.6397 55.1631 14.6397Z" fill="black"/>
<path d="M82.7301 121.669C68.0607 121.669 52.5093 117.902 38.4662 110.125C19.9499 99.8712 7.18466 84.4191 3.44382 67.7307C0.667298 55.344 3.27029 43.1327 10.7734 33.346C28.9917 9.58286 71.0519 5.3339 104.534 23.8748C123.05 34.1286 135.815 49.5809 139.556 66.2694C142.333 78.6558 139.73 90.8671 132.226 100.654C121.649 114.45 103.035 121.669 82.7301 121.669ZM60.2601 12.8196C40.1238 12.8196 21.6796 19.9669 11.2015 33.6342C3.6781 43.4471 1.17393 55.2023 3.95952 67.629C7.67008 84.1822 20.345 99.5164 38.7344 109.7C52.6979 117.433 68.1633 121.18 82.7401 121.18C102.876 121.181 121.321 114.033 131.799 100.366C139.322 90.5528 141.826 78.7977 139.04 66.3708C135.33 49.8176 122.655 34.4834 104.266 24.2999C90.3023 16.5673 74.8368 12.8196 60.2601 12.8196Z" fill="black"/>
<path d="M77.6547 124.687C67.8489 124.687 57.7095 122.996 47.8437 119.421C28.3348 112.353 12.9158 98.9457 5.54107 82.6377C-0.414348 69.4681 -0.598396 55.3576 5.02319 42.9057C18.0695 14.0063 58.5023 1.29854 95.1565 14.5789C114.666 21.6473 130.084 35.0543 137.459 51.3623C143.415 64.532 143.599 78.6424 137.977 91.0945C128.442 112.215 104.279 124.687 77.6547 124.687ZM65.3384 9.82585C38.9306 9.82585 14.9762 22.1794 5.52874 43.1062C-0.0342801 55.4288 0.149769 69.3967 6.0468 82.4369C13.364 98.6173 28.6704 111.922 48.0419 118.941C84.4214 132.122 124.539 119.54 137.471 90.8938C143.034 78.5712 142.85 64.6033 136.953 51.563C129.636 35.3826 114.33 22.0774 94.9581 15.0588C85.1549 11.5072 75.0794 9.82585 65.3384 9.82585Z" fill="black"/>
<path d="M73.7363 128.86C68.8711 128.86 63.9249 128.425 58.9464 127.518C40.2065 124.105 23.8926 114.603 13.0095 100.764C2.12102 86.9174 -2.02817 70.3871 1.32589 54.218C8.24797 20.848 45.3589 -0.566321 84.0536 6.48169C122.748 13.5297 148.596 46.412 141.674 79.7819C135.643 108.858 106.685 128.86 73.7363 128.86ZM69.2633 5.67628C36.5799 5.67628 7.86682 25.4972 1.88783 54.3204C-1.43522 70.3406 2.67825 86.7215 13.4705 100.445C24.2679 114.176 40.4572 123.604 59.0555 126.992C63.9942 127.891 68.9106 128.324 73.7367 128.324C106.42 128.325 135.133 108.503 141.112 79.6798C147.974 46.6004 122.329 14.0002 83.9445 7.0086C79.0058 6.10906 74.0894 5.67628 69.2633 5.67628Z" fill="black"/>
<path d="M71.5 134C32.0749 134 0 103.944 0 67C0 30.056 32.0749 0 71.5 0C110.925 0 143 30.056 143 67C143 103.944 110.925 134 71.5 134ZM71.5 0.559538C32.404 0.559538 0.596938 30.3646 0.596938 67C0.596938 103.635 32.404 133.44 71.5 133.44C110.596 133.44 142.403 103.635 142.403 67C142.403 30.3646 110.596 0.559538 71.5 0.559538Z" fill="black"/>
</svg>
